<svg width="177" height="145" viewBox="0 0 177 145" fill="none" xmlns="http://www.w3.org/2000/svg">
<path d="M86.5876 4.17373L57.3001 33.2306C53.7601 36.7447 56.9359 41.9192 62.6272 41.9192C66.3835 41.9192 69.434 44.3188 69.434 47.2757V71.9712C69.434 74.928 72.4789 77.3276 76.2408 77.3276H107.594C111.351 77.3276 114.401 74.928 114.401 71.9712V47.2814C114.401 44.3245 117.446 41.9249 121.208 41.9249C126.899 41.9249 130.075 36.7447 126.535 33.2363L97.2475 4.17941C94.5213 1.47275 89.3081 1.47275 86.5876 4.17373Z" fill="#3A0FBC"/>
<path d="M86.5876 2.08686L57.3001 31.9739C53.7601 35.5847 56.9359 40.9127 62.6272 40.9127C66.3835 40.9127 69.434 43.3806 69.434 46.4227V71.8233C69.434 74.8655 72.4789 77.3333 76.2408 77.3333H107.594C111.351 77.3333 114.401 74.8655 114.401 71.8233V46.4227C114.401 43.3806 117.446 40.9127 121.208 40.9127C126.899 40.9127 130.075 35.5847 126.535 31.9739L97.2418 2.08686C94.5213 -0.693726 89.3081 -0.693726 86.5876 2.08686Z" fill="#7466FF"/>
<path d="M69.4341 58.7222V68.5992C69.4341 71.6414 72.4789 74.1092 76.2409 74.1092H107.594C111.351 74.1092 114.401 71.6414 114.401 68.5992V63.0153L69.4341 58.7222Z" fill="#6045FF"/>
<path d="M161.855 69.3725H15.1446C6.77836 69.3725 0 76.1449 0 84.5037V129.869C0 138.228 6.77836 145 15.1446 145H161.855C170.222 145 177 138.228 177 129.869V84.5037C177 76.1449 170.222 69.3725 161.855 69.3725Z" fill="#3A0FBC"/>
<path d="M35.3146 90.6278L39.0936 98.2816C39.3212 98.7478 39.7652 99.0663 40.2774 99.1402L48.7347 100.368C50.0209 100.556 50.5388 102.137 49.6055 103.047L43.4873 109.006C43.1174 109.364 42.9466 109.887 43.0377 110.393L44.4833 118.809C44.7052 120.094 43.3564 121.072 42.201 120.464L34.6373 116.489C34.182 116.25 33.6299 116.25 33.1746 116.489L25.6109 120.469C24.4555 121.078 23.1124 120.094 23.3286 118.815L24.7742 110.399C24.8596 109.887 24.6946 109.37 24.3246 109.012L18.2064 103.052C17.2731 102.143 17.791 100.562 19.0772 100.374L27.5345 99.1459C28.0467 99.072 28.4907 98.7478 28.7183 98.2873L32.4974 90.6335C33.0722 89.4622 34.7397 89.4622 35.3146 90.6278Z" fill="#7466FF"/>
<path d="M137.161 80.1765H66.5884V94.9608H137.161V80.1765Z" fill="#FFD415"/>
<path d="M144.588 104.627H66.5884V112.003H144.588V104.627Z" fill="#F4F4F4"/>
<path d="M162.203 115.443H66.5884V122.818H162.203V115.443Z" fill="#F4F4F4"/>
<path d="M160.495 126.252H66.5884V133.627H160.495V126.252Z" fill="#F4F4F4"/>
<path d="M91.9147 15.0516C85.1591 15.0516 79.6841 20.5218 79.6841 27.2714C79.6841 34.021 85.1591 39.4912 91.9147 39.4912C98.6703 39.4912 104.145 34.021 104.145 27.2714C104.145 20.5218 98.6703 15.0516 91.9147 15.0516ZM92.131 19.9361C95.4547 19.9361 98.1467 22.6257 98.1467 25.9465C98.1467 29.2673 95.4547 31.9569 92.131 31.9569C88.8073 31.9569 86.1153 29.2673 86.1153 25.9465C86.1153 22.6314 88.8073 19.9361 92.131 19.9361ZM91.9204 38.6041C88.1414 38.6041 84.7892 36.8016 82.672 34.0096C83.7306 32.7188 85.051 31.6498 86.5478 30.8822C87.9024 32.4459 89.9 33.4353 92.131 33.4353C94.362 33.4353 96.3596 32.4459 97.7142 30.8822C99.1086 31.5986 100.344 32.571 101.362 33.7424C99.2622 36.6822 95.8133 38.6041 91.9204 38.6041Z" fill="#FFD415"/>
</svg>
