<svg width="164" height="168" viewBox="0 0 164 168" fill="none" xmlns="http://www.w3.org/2000/svg">
<g clip-path="url(#clip0)">
<path d="M76.019 122.397L39.2605 108.931C35.6665 107.618 33.2795 104.193 33.2795 100.362V65.8292L76.019 81.4882V122.397Z" fill="#3A0FBC"/>
<path d="M27.6004 113.251L0 126.481V81.7795L33.2851 65.8237V104.215C33.2851 108.068 31.0737 111.586 27.6004 113.251Z" fill="#6045FF"/>
<path d="M42.7394 147.84L5.981 134.374C2.38691 133.055 0 129.63 0 125.799V81.796L42.7394 97.4549V147.84Z" fill="#3A0FBC"/>
<path d="M70.3399 134.604L42.7395 147.834V97.4495L76.0246 81.4937V125.569C76.0191 129.427 73.8078 132.939 70.3399 134.604Z" fill="#7466FF"/>
<path d="M0 81.796L33.2851 65.8237L76.019 81.4937L42.7394 97.4494L0 81.796Z" fill="#7466FF"/>
<path d="M164 131.087L110.676 111.547C105.463 109.64 101.995 104.672 101.995 99.1093V49.0105L164 71.7268V131.087Z" fill="#3A0FBC"/>
<path d="M93.748 117.819L53.7083 137.017V72.161L101.995 49.0105V104.71C101.995 110.305 98.7907 115.406 93.748 117.819Z" fill="#6045FF"/>
<path d="M45.5872 146.471V96.1523L42.8052 89.914L59.3764 75.3873L65.4452 77.6188L51.1566 143.8L45.5872 146.471Z" fill="#674EF9"/>
<path d="M45.5654 96.0974L45.5874 96.1523V146.471L56.8799 141.057L63.2889 87.6001L45.5654 96.0974Z" fill="#5240FF"/>
<path d="M115.713 168L62.3889 148.461C57.1761 146.553 53.7083 141.585 53.7083 136.023V72.1829L115.713 94.8992V168Z" fill="#3A0FBC"/>
<path d="M110.072 107.881L93.1828 101.687C92.5463 101.456 92.1238 100.846 92.1238 100.17V95.5312L95.8825 93.7504L110.072 98.9499V107.881Z" fill="#FFD415"/>
<path d="M110.072 123.106L98.5329 118.874C98.0994 118.715 97.8086 118.302 97.8086 117.835V105.018L110.072 109.508V123.106Z" fill="#FFD415"/>
<path d="M155.758 148.801L115.719 168V94.8992L164.005 71.7487V135.693C164 141.288 160.795 146.389 155.758 148.801Z" fill="#6045FF"/>
<path d="M53.7083 72.1829L101.995 49.0105L164 71.7487L115.713 94.8992L53.7083 72.1829Z" fill="#7466FF"/>
<path d="M143.198 64.1583L112.673 52.9734C109.688 51.8796 107.707 49.038 107.707 45.8557V17.1759L143.198 30.1802V64.1583Z" fill="#270C96"/>
<path d="M102.983 56.5625L80.063 67.5496V30.4275L107.702 17.1759V49.06C107.707 52.2643 105.869 55.1829 102.983 56.5625Z" fill="#4946D1"/>
<path d="M107.707 17.1869L80.0632 30.4385L70.8887 13.2516L98.533 0L107.707 17.1869Z" fill="#6045FF"/>
<path d="M81.7475 71.7487L74.4551 62.2236L81.8298 58.6785L81.7475 71.7487Z" fill="#674EF9"/>
<path d="M108.931 51.3629L97.419 47.1473C96.2941 46.7351 95.5479 45.6633 95.5479 44.4651V30.6859L108.931 35.5886V51.3629Z" fill="#B89E0F"/>
<path d="M117.573 47.2187L108.931 51.3629V35.5886L119.351 30.5924V44.3936C119.356 45.5973 118.66 46.7021 117.573 47.2187Z" fill="#DBB342"/>
<path d="M95.5479 30.6859L105.973 25.6842L119.357 30.5924L108.931 35.5886L95.5479 30.6859Z" fill="#FBD864"/>
<path d="M126.468 70.6605L109.343 64.3837C107.669 63.7681 106.555 62.1742 106.555 60.3879V39.8867L126.468 47.1803V70.6605Z" fill="#B89E0F"/>
<path d="M139.324 64.4936L126.462 70.6605V47.1858L141.969 39.7493V60.2835C141.975 62.0807 140.943 63.7186 139.324 64.4936Z" fill="#FBD864"/>
<path d="M106.55 39.8867L122.062 32.4447L141.975 39.7493L126.468 47.1858L106.55 39.8867Z" fill="#FBD864"/>
<path d="M115.559 85.2861L85.0342 74.1012C82.0492 73.0074 80.0684 70.1658 80.0684 66.9835V30.4385L115.559 43.4428V85.2861Z" fill="#3A0FBC"/>
<path d="M138.479 74.299L115.559 85.2861V43.4428L143.198 30.1912V66.7966C143.198 69.9954 141.36 72.914 138.479 74.299Z" fill="#6045FF"/>
<path d="M110.972 54.4684L94.0827 48.274C93.4462 48.0432 93.0237 47.4331 93.0237 46.757V38.9633L110.978 45.5424V54.4684H110.972Z" fill="#FFD415"/>
<path d="M110.972 69.6876L99.4328 65.4555C98.9993 65.2961 98.7085 64.8839 98.7085 64.4167V51.6048L110.972 56.0953V69.6876Z" fill="#FFD415"/>
<path d="M39.321 108.64L22.4316 102.446C21.7951 102.215 21.3726 101.605 21.3726 100.929V93.1349L39.3265 99.7139V108.64H39.321Z" fill="#FFD415"/>
<path d="M39.3209 123.865L27.7814 119.633C27.3479 119.473 27.0571 119.061 27.0571 118.594V105.776L39.3209 110.267V123.865Z" fill="#FFD415"/>
<path d="M143.198 30.1362L115.559 43.3878L124.909 30.4275L152.548 17.1759L143.198 30.1362Z" fill="#3A0FBC"/>
<path d="M92.1238 95.5312C92.1238 95.5312 92.5353 94.8772 93.5724 94.5529C94.6094 94.2286 95.8825 93.7504 95.8825 93.7504C95.8825 93.7504 94.3241 95.4543 94.2802 96.6085C94.2802 96.614 92.9853 95.3773 92.1238 95.5312Z" fill="#A0830A"/>
<path d="M92.1238 95.5312C92.1238 95.5312 92.5353 94.8772 93.5724 94.5529C94.6094 94.2286 95.8825 93.7504 95.8825 93.7504C95.8825 93.7504 94.2199 95.3279 94.0004 96.0149C94.0004 96.0149 92.9853 95.3773 92.1238 95.5312Z" fill="#B89E0F"/>
</g>
<defs>
<clipPath id="clip0">
<rect width="164" height="168" fill="white"/>
</clipPath>
</defs>
</svg>
