<svg width="166" height="168" viewBox="0 0 166 168" fill="none" xmlns="http://www.w3.org/2000/svg">
<g clip-path="url(#clip0)">
<path d="M77.8431 90.4583L113.657 53.9779C117.986 49.5706 114.103 43.0671 107.143 43.0671C102.55 43.0671 98.8193 40.0549 98.8193 36.3416V9.65453C98.8193 5.94125 95.0959 2.92898 90.4956 2.92898H52.1552C47.5619 2.92898 43.8316 5.94125 43.8316 9.65453V36.3416C43.8316 40.0549 40.1082 43.0671 35.5079 43.0671C28.5483 43.0671 24.6649 49.5706 28.9937 53.9779L64.8078 90.4583C68.1414 93.8523 74.5094 93.8523 77.8431 90.4583Z" fill="#3A0FBC"/>
<path d="M77.8431 91.8465L113.657 55.3661C117.986 50.9587 114.103 44.4553 107.143 44.4553C102.55 44.4553 98.8193 41.443 98.8193 37.7297V6.72555C98.8193 3.01227 95.0959 0 90.4956 0H52.1552C47.5619 0 43.8316 3.01227 43.8316 6.72555V37.7297C43.8316 41.443 40.1082 44.4553 35.5079 44.4553C28.5483 44.4553 24.6649 50.9587 28.9937 55.3661L64.8078 91.8465C68.1414 95.2405 74.5094 95.2405 77.8431 91.8465Z" fill="#6045FF"/>
<path d="M57.5835 84.4893L64.8076 91.8465C68.1412 95.2405 74.5092 95.2405 77.8429 91.8465L92.4093 77.0142C81.3018 82.2683 65.5174 83.9549 57.5835 84.4893Z" fill="#3A0FBC"/>
<path d="M162.096 144.693L136.951 110.246L131.508 102.792C131.202 102.376 130.875 101.966 130.534 101.557C130.513 101.536 130.499 101.515 130.478 101.494C129.587 100.439 128.585 99.4327 127.507 98.4957L127.444 98.5026C122.182 94.0536 114.986 91.1732 109.342 91.6313L8.36545 99.8491C5.15012 100.113 2.97873 101.411 1.96959 103.361C-0.807287 105.742 -0.73769 110.073 2.72122 114.813L33.3016 156.707C38.236 163.461 48.1534 168.458 55.4679 167.861L156.445 159.657C159.66 159.394 161.831 158.096 162.84 156.145C165.624 153.772 165.548 149.434 162.096 144.693Z" fill="#BABABA"/>
<path d="M156.159 158.491L58.4952 167.944C51.4242 168.632 43.0727 162.864 39.8365 155.069L19.7651 106.72C16.5289 98.926 19.6398 92.0478 26.7108 91.3676L124.375 81.9212C131.446 81.2341 139.797 87.0019 143.033 94.7963L163.105 143.145C166.334 150.933 163.223 157.811 156.159 158.491Z" fill="#3A0FBC"/>
<path d="M157.781 156.583L60.1168 166.029C53.0458 166.716 44.6943 160.948 41.4581 153.154L21.3867 104.805C18.1505 97.0104 21.2614 90.1321 28.3323 89.4519L125.996 80.0056C133.067 79.3185 141.419 85.0862 144.655 92.8806L164.726 141.23C167.956 149.024 164.852 155.895 157.781 156.583Z" fill="#6045FF"/>
<path d="M37.6512 113.286L50.4777 112.044C53.5539 111.746 57.1937 114.258 58.5995 117.652L62.4064 126.828C63.8123 130.222 62.4621 133.213 59.386 133.512L46.5595 134.754C43.4833 135.052 39.8435 132.54 38.4376 129.146L34.6307 119.97C33.2249 116.576 34.5751 113.585 37.6512 113.286Z" fill="#E2B80A"/>
<path d="M38.4932 112.002L51.3197 110.76C54.3959 110.461 58.0357 112.974 59.4416 116.368L63.2485 125.544C64.6543 128.938 63.3041 131.929 60.228 132.228L47.4015 133.47C44.3254 133.768 40.6855 131.256 39.2797 127.862L35.4658 118.686C34.06 115.292 35.4101 112.294 38.4932 112.002Z" fill="#FFD415"/>
<path d="M38.4377 115.632L44.6039 115.035C45.4947 114.952 46.5526 115.674 46.9563 116.66C47.3669 117.645 46.9702 118.513 46.0794 118.596L39.9132 119.193C39.0223 119.276 37.9645 118.554 37.5608 117.569C37.1572 116.59 37.5469 115.723 38.4377 115.632Z" fill="#6045FF"/>
<path d="M40.7065 121.095L46.8727 120.498C47.7635 120.414 48.8214 121.136 49.2251 122.122C49.6357 123.107 49.239 123.975 48.3482 124.058L42.182 124.655C41.2911 124.739 40.2333 124.017 39.8296 123.031C39.426 122.052 39.8157 121.185 40.7065 121.095Z" fill="#6045FF"/>
<path d="M42.9753 126.557L49.1415 125.96C50.0323 125.877 51.0902 126.599 51.4939 127.584C51.9045 128.57 51.5078 129.437 50.617 129.521L44.4508 130.118C43.5599 130.201 42.5021 129.479 42.0984 128.493C41.6948 127.515 42.0845 126.647 42.9753 126.557Z" fill="#6045FF"/>
<path d="M48.8212 114.626L54.9874 114.029C55.8782 113.946 56.9361 114.668 57.3398 115.653C57.7504 116.639 57.3537 117.506 56.4628 117.59L50.2967 118.186C49.4058 118.27 48.348 117.548 47.9443 116.562C47.5337 115.584 47.9234 114.716 48.8212 114.626Z" fill="#6045FF"/>
<path d="M51.0832 120.088L57.2494 119.491C58.1403 119.408 59.1981 120.13 59.6018 121.115C60.0124 122.101 59.6157 122.969 58.7249 123.052L52.5587 123.649C51.6678 123.732 50.61 123.01 50.2063 122.025C49.8027 121.046 50.1924 120.178 51.0832 120.088Z" fill="#6045FF"/>
<path d="M53.352 125.558L59.5182 124.961C60.409 124.877 61.4669 125.599 61.8706 126.585C62.2812 127.57 61.8845 128.438 60.9937 128.521L54.8275 129.118C53.9366 129.201 52.8788 128.48 52.4751 127.494C52.0715 126.508 52.4612 125.641 53.352 125.558Z" fill="#6045FF"/>
<path d="M21.3868 104.805L24.957 113.404L148.225 101.48L144.655 92.8806C143.917 91.1108 142.936 89.438 141.781 87.925L20.0923 99.7034C20.2315 101.314 20.6491 103.035 21.3868 104.805Z" fill="#3A0FBC"/>
<path d="M43.4902 138.446L153.814 127.772L156.451 134.115L46.1279 144.79L43.4902 138.446Z" fill="#7466FF"/>
<path d="M48.3967 149.003L88.8945 145.082L90.4744 148.885L49.9766 152.807L48.3967 149.003Z" fill="#7466FF"/>
<path d="M50.7839 154.75L91.2818 150.829L92.8616 154.632L52.3638 158.554L50.7839 154.75Z" fill="#7466FF"/>
<path d="M73.368 38.0837C70.3127 38.0837 67.7446 37.1467 65.6707 35.2658C63.5967 33.3918 62.2257 30.6918 61.5506 27.1729H58.5093C58.036 27.1729 57.6463 27.0202 57.3401 26.7079C57.0338 26.4025 56.8738 26.0138 56.8738 25.5418C56.8738 25.1046 57.0269 24.7298 57.3401 24.4174C57.6463 24.112 58.036 23.9524 58.5093 23.9524H61.1122C61.0565 22.7239 61.0704 21.5162 61.1539 20.3432H58.5093C58.036 20.3432 57.6463 20.1905 57.3401 19.8782C57.0338 19.5728 56.8738 19.198 56.8738 18.7538C56.8738 18.2818 57.0269 17.8932 57.3401 17.5878C57.6463 17.2824 58.036 17.1227 58.5093 17.1227H61.5506C62.2257 13.6316 63.6037 10.9524 65.6707 9.07151C67.7446 7.19752 70.3058 6.25358 73.368 6.25358C74.8086 6.25358 76.2145 6.48263 77.5785 6.93377C78.9426 7.39186 80.1745 8.14146 81.2602 9.19645C81.6986 9.57819 81.9422 10.0155 81.984 10.5152C82.0257 11.0149 81.9213 11.4522 81.6569 11.8339C81.3924 12.2157 81.0374 12.4516 80.599 12.5349C80.1605 12.6252 79.6734 12.4447 79.1444 12.0074C78.3789 11.3619 77.5368 10.8969 76.6112 10.5985C75.6855 10.307 74.7042 10.1612 73.6812 10.1612C71.8299 10.1612 70.2501 10.7303 68.9417 11.8756C67.6333 13.0208 66.7146 14.7629 66.1857 17.1089H71.8299C72.3032 17.1089 72.6929 17.2685 72.9991 17.5947C73.3054 17.9209 73.4654 18.2957 73.4654 18.7399C73.4654 19.1772 73.3123 19.552 72.9991 19.8643C72.6929 20.1697 72.3032 20.3294 71.8299 20.3294H65.6985C65.6359 21.5023 65.6359 22.7031 65.6985 23.9385H71.8299C72.3032 23.9385 72.6929 24.0912 72.9991 24.4036C73.3054 24.7089 73.4654 25.0837 73.4654 25.5279C73.4654 25.9652 73.3123 26.347 72.9991 26.6732C72.6929 26.9994 72.3032 27.159 71.8299 27.159H66.1857C66.7146 29.5327 67.6333 31.2957 68.9417 32.434C70.2501 33.5722 71.8299 34.1483 73.6812 34.1483C74.7112 34.1483 75.6716 34.0095 76.5694 33.7319C77.4672 33.4542 78.3371 32.9753 79.1932 32.3021C79.7221 31.8926 80.2093 31.7329 80.6477 31.8162C81.0862 31.9065 81.4341 32.1216 81.6847 32.4756C81.9352 32.8296 82.0396 33.246 81.9909 33.7319C81.9492 34.2177 81.7195 34.648 81.3089 35.0298C80.3067 36.0848 79.1027 36.8552 77.6899 37.341C76.2771 37.8477 74.8365 38.0837 73.368 38.0837Z" fill="#FFD415"/>
</g>
<defs>
<clipPath id="clip0">
<rect width="166" height="168" fill="white"/>
</clipPath>
</defs>
</svg>
