<svg xmlns="http://www.w3.org/2000/svg" viewBox="0 0 863.8 149"><defs><style>.cls-1{fill:#7466ff;}</style></defs><title>Fichier 1</title><g id="Calque_2" data-name="Calque 2"><g id="Calque_1-2" data-name="Calque 1"><path class="cls-1" d="M147.49,13.34c2.48-2.47,1.84-7.13-1.43-10.4S138.13-1,135.66,1.51L121.12,16a19.76,19.76,0,0,0-5-1.08l-42.9-3.74a19.61,19.61,0,0,0-15.6,5.69L5.76,68.82a19.64,19.64,0,0,0,0,27.79l46.63,46.63a19.64,19.64,0,0,0,27.79,0l51.91-51.91a19.61,19.61,0,0,0,5.69-15.6l-3.26-37.38-8,8a7.61,7.61,0,0,0-2.21,6l2.12,24.35a8.29,8.29,0,0,1-2.4,6.59L72.16,135.22a8.3,8.3,0,0,1-11.74,0L13.78,88.58a8.3,8.3,0,0,1,0-11.74L65.69,24.93a8.29,8.29,0,0,1,6.59-2.4l35.38,3.08a1.67,1.67,0,0,1,1,2.85l-4.83,4.83c-2.47,2.48-1.83,7.14,1.43,10.41s7.93,3.9,10.41,1.43Z"/><path class="cls-1" d="M80.15,39.16c-3.27-3.27-8.17-3.67-10.94-.9L29.74,77.73c-2.77,2.77-2.37,7.67.9,10.94s8.17,3.67,10.94.9L81.05,50.1C83.82,47.33,83.42,42.43,80.15,39.16Z"/><path class="cls-1" d="M71.27,119.26l39.47-39.47c2.77-2.77,2.37-7.67-.9-10.94s-8.17-3.67-10.94-.9L59.43,107.42c-2.77,2.77-2.37,7.67.9,10.94S68.5,122,71.27,119.26Z"/><path d="M224.47,103.83a22.33,22.33,0,0,1-9.33-7.42,18.92,18.92,0,0,1-3.49-11h10.58a14,14,0,0,0,4.42,9q3.87,3.66,11.3,3.66,7.08,0,11.18-3.55a11.49,11.49,0,0,0,4.09-9.11,10.34,10.34,0,0,0-2.4-7.09,15.37,15.37,0,0,0-6-4.15,95.29,95.29,0,0,0-9.71-3,85.57,85.57,0,0,1-12.06-3.93,19.47,19.47,0,0,1-7.75-6.17q-3.21-4.2-3.21-11.29a19.55,19.55,0,0,1,3.16-11,20.64,20.64,0,0,1,8.89-7.42,31.25,31.25,0,0,1,13.15-2.62q10.69,0,17.51,5.35a19.71,19.71,0,0,1,7.69,14.18H251.58A11.75,11.75,0,0,0,247,40.55q-4-3.33-10.69-3.33a15.53,15.53,0,0,0-10.15,3.22,11,11,0,0,0-3.93,9,9.74,9.74,0,0,0,2.35,6.77,15.16,15.16,0,0,0,5.78,4q3.44,1.37,9.66,3.11a91.42,91.42,0,0,1,12.11,4.09A20.35,20.35,0,0,1,260,73.61q3.27,4.2,3.27,11.4a20,20,0,0,1-2.95,10.48,21.57,21.57,0,0,1-8.73,8A28.74,28.74,0,0,1,238,106.51,32.41,32.41,0,0,1,224.47,103.83Z"/><path d="M321.31,47.75a20.55,20.55,0,0,1,8.56,8.68A29.37,29.37,0,0,1,333,70.5v35.24h-9.82V71.92q0-8.94-4.47-13.69t-12.22-4.75q-7.86,0-12.5,4.91t-4.63,14.29v33.06h-9.93V25h9.93V54.46a19.55,19.55,0,0,1,8.12-7.09,26.38,26.38,0,0,1,11.62-2.51A25.7,25.7,0,0,1,321.31,47.75Z"/><path d="M361.62,102.91a27.19,27.19,0,0,1-10.69-10.86,33.31,33.31,0,0,1-3.88-16.31,32.26,32.26,0,0,1,4-16.2,27.38,27.38,0,0,1,10.85-10.81,33.36,33.36,0,0,1,30.77,0,27.58,27.58,0,0,1,10.86,10.75,32.33,32.33,0,0,1,4,16.26,31.83,31.83,0,0,1-4.09,16.31,28.45,28.45,0,0,1-11.07,10.86,31.84,31.84,0,0,1-15.5,3.82A30.68,30.68,0,0,1,361.62,102.91Zm25.26-7.42A19,19,0,0,0,394.46,88a24.1,24.1,0,0,0,2.9-12.22,24.49,24.49,0,0,0-2.84-12.22A18.61,18.61,0,0,0,387.1,56a21.45,21.45,0,0,0-19.91,0,18,18,0,0,0-7.26,7.48,25.25,25.25,0,0,0-2.73,12.22,25.89,25.89,0,0,0,2.68,12.33A17.74,17.74,0,0,0,367,95.54,20,20,0,0,0,376.84,98,21,21,0,0,0,386.88,95.49Z"/><path d="M440.84,48.41A26.18,26.18,0,0,1,454.42,45a28,28,0,0,1,14.46,3.82,26.91,26.91,0,0,1,10.2,10.75,33.61,33.61,0,0,1,3.71,16.09,34.36,34.36,0,0,1-3.71,16.15,27.2,27.2,0,0,1-24.66,15A26.06,26.06,0,0,1,441,103.29a24.55,24.55,0,0,1-8.9-8.57v39.39h-9.93V46h9.93V57A23.65,23.65,0,0,1,440.84,48.41Zm29.07,15.43a18.81,18.81,0,0,0-7.36-7.63,20.34,20.34,0,0,0-10.2-2.62,19.92,19.92,0,0,0-10.1,2.67A19.51,19.51,0,0,0,434.84,64a23.94,23.94,0,0,0-2.79,11.73,24.21,24.21,0,0,0,2.79,11.84,19.48,19.48,0,0,0,7.41,7.74,20.56,20.56,0,0,0,20.3,0,19.1,19.1,0,0,0,7.36-7.74,24.89,24.89,0,0,0,2.73-12A24.33,24.33,0,0,0,469.91,63.84Z"/><path d="M511.81,25v80.74H496.54V25Z"/><path d="M539.53,102.85a27.86,27.86,0,0,1-11-11,32.94,32.94,0,0,1-4-16.37,32.16,32.16,0,0,1,4.09-16.37,28.45,28.45,0,0,1,11.18-11,34.21,34.21,0,0,1,31.65,0,28.52,28.52,0,0,1,11.18,11,32.16,32.16,0,0,1,4.09,16.37,31.53,31.53,0,0,1-4.2,16.37,29,29,0,0,1-11.35,11,32.89,32.89,0,0,1-16,3.88A31.74,31.74,0,0,1,539.53,102.85ZM563,91.4a14.73,14.73,0,0,0,5.84-6.06,20.45,20.45,0,0,0,2.18-9.82c0-5.75-1.51-10.16-4.53-13.26a14.88,14.88,0,0,0-11.07-4.63,14.54,14.54,0,0,0-11,4.63c-2.94,3.1-4.42,7.51-4.42,13.26s1.44,10.17,4.31,13.26a14.2,14.2,0,0,0,10.86,4.63A16,16,0,0,0,563,91.4Z"/><path d="M599.43,59.1A27.24,27.24,0,0,1,610,48.19a30.67,30.67,0,0,1,15.5-3.88q11.24,0,18.6,5.62T654,65.7H637.51a12,12,0,0,0-4.42-6.16,12.77,12.77,0,0,0-7.69-2.24A12.61,12.61,0,0,0,615,62q-3.82,4.75-3.82,13.48T615,88.89a12.61,12.61,0,0,0,10.37,4.74q9.27,0,12.11-8.29H654a27.81,27.81,0,0,1-9.93,15.6q-7.41,5.79-18.54,5.79a30.57,30.57,0,0,1-15.5-3.88,27.24,27.24,0,0,1-10.58-10.91,33.84,33.84,0,0,1-3.82-16.42A33.84,33.84,0,0,1,599.43,59.1Z"/><path d="M666.48,59a26.77,26.77,0,0,1,9.93-10.91,26.47,26.47,0,0,1,14-3.82A24.6,24.6,0,0,1,702.26,47a23.86,23.86,0,0,1,8.13,6.88V45.3h15.39v60.44H710.39V96.91a22.65,22.65,0,0,1-8.13,7,24.77,24.77,0,0,1-11.94,2.79,25.65,25.65,0,0,1-13.91-3.93,27.38,27.38,0,0,1-9.93-11.08,35.52,35.52,0,0,1-3.66-16.42A35,35,0,0,1,666.48,59ZM708.21,66a15.48,15.48,0,0,0-5.89-6.11,15.76,15.76,0,0,0-8-2.13,15.38,15.38,0,0,0-13.69,8.13,19,19,0,0,0-2.24,9.44,19.62,19.62,0,0,0,2.24,9.55,16,16,0,0,0,5.89,6.27,14.94,14.94,0,0,0,7.8,2.19,15.76,15.76,0,0,0,8-2.13,15.48,15.48,0,0,0,5.89-6.11,19.67,19.67,0,0,0,2.18-9.55A19.67,19.67,0,0,0,708.21,66Z"/><path d="M757.53,25v80.74H742.25V25Z"/><path d="M789.39,25v80.74H774.11V25Z"/><path d="M863.8,45.3l-37.42,89H810.12l13.09-30.11L799,45.3h17.13l15.6,42.22L847.55,45.3Z"/></g></g></svg>